<svg xmlns="http://www.w3.org/2000/svg" width="32" height="32" viewBox="0 0 32 32" fill="none">
  <defs>
    <linearGradient id="fg" x1="0" y1="0" x2="32" y2="32" gradientUnits="userSpaceOnUse">
      <stop offset="0%" stop-color="#10b981"/>
      <stop offset="100%" stop-color="#059669"/>
    </linearGradient>
  </defs>
  <rect width="32" height="32" rx="8" fill="url(#fg)"/>
  <path d="M10 9a2 2 0 012-2h8a2 2 0 012 2v14a2 2 0 01-2 2h-8a2 2 0 01-2-2V9z" fill="white" fill-opacity="0.9"/>
  <circle cx="16" cy="20" r="1.5" fill="#059669"/>
  <rect x="13" y="10" width="6" height="1.2" rx="0.6" fill="#059669" opacity="0.3"/>
  <path d="M22 12c2-1 4 0 5 2s0 4-2 5" stroke="white" stroke-width="2" stroke-linecap="round" fill="none" opacity="0.8"/>
  <path d="M23 9c3-1.5 6 0 7.5 3s0 6-3 7.5" stroke="white" stroke-width="2" stroke-linecap="round" fill="none" opacity="0.5"/>
</svg>
