<svg xmlns="http://www.w3.org/2000/svg" width="140" height="36" viewBox="0 0 140 36" fill="none">
  <defs>
    <linearGradient id="logo-grad" x1="0" y1="0" x2="32" y2="32" gradientUnits="userSpaceOnUse">
      <stop offset="0%" stop-color="#10b981"/>
      <stop offset="100%" stop-color="#059669"/>
    </linearGradient>
  </defs>
  <rect width="32" height="32" rx="10" fill="url(#logo-grad)" y="2"/>
  <path d="M10 11a2 2 0 012-2h8a2 2 0 012 2v12a2 2 0 01-2 2h-8a2 2 0 01-2-2V11z" fill="white" fill-opacity="0.25"/>
  <path d="M12 11a1 1 0 011-1h6a1 1 0 011 1v12a1 1 0 01-1 1h-6a1 1 0 01-1-1V11z" fill="white" fill-opacity="0.9"/>
  <circle cx="16" cy="21" r="1.5" fill="#059669"/>
  <rect x="14" y="12" width="4" height="1" rx="0.5" fill="#059669" opacity="0.4"/>
  <path d="M22 14c2-1 4 0 5 2s0 4-2 5" stroke="white" stroke-width="1.5" stroke-linecap="round" fill="none" opacity="0.7"/>
  <path d="M23 11c3-1.5 6 0 7.5 3s0 6-3 7.5" stroke="white" stroke-width="1.5" stroke-linecap="round" fill="none" opacity="0.4"/>
  <text x="40" y="24" font-family="system-ui, -apple-system, sans-serif" font-size="20" font-weight="800" letter-spacing="-0.5">
    <tspan fill="#111827">Sim</tspan><tspan fill="#10b981">2</tspan><tspan fill="#111827">Me</tspan>
  </text>
</svg>
